<?xml version="1.0" standalone="no"?>
<!DOCTYPE svg PUBLIC "-//W3C//DTD SVG 20010904//EN"
 "http://www.w3.org/TR/2001/REC-SVG-20010904/DTD/svg10.dtd">
<svg version="1.0" xmlns="http://www.w3.org/2000/svg"
 width="616.000000pt" height="616.000000pt" viewBox="0 0 616.000000 616.000000"
 preserveAspectRatio="xMidYMid meet">
<metadata>
Created by potrace 1.11, written by Peter Selinger 2001-2013
</metadata>
<g transform="translate(0.000000,616.000000) scale(0.100000,-0.100000)"
fill="#000000" stroke="none">
<path d="M3205 5753 c-129 -21 -290 -92 -364 -162 -28 -25 -60 -68 -73 -96
-21 -45 -23 -65 -23 -197 0 -80 -3 -150 -7 -154 -14 -13 -8 -37 14 -61 l22
-23 -23 -46 c-18 -34 -22 -56 -18 -89 9 -67 44 -125 77 -125 12 0 19 -16 28
-58 24 -118 97 -218 199 -273 47 -25 48 -27 51 -76 l3 -50 -138 1 c-76 1 -153
-2 -172 -6 -66 -13 -123 57 -115 141 2 24 6 47 9 51 3 5 1 11 -5 15 -5 3 -8
16 -4 29 5 21 3 22 -75 22 -75 0 -80 -1 -77 -21 2 -11 0 -30 -5 -42 -5 -12 -4
-25 0 -28 12 -7 5 -89 -9 -115 -13 -25 -121 -97 -203 -135 -65 -31 -121 -79
-132 -113 -4 -15 -1 -32 9 -47 19 -29 21 -86 4 -103 -6 -6 -13 -18 -14 -27 -1
-8 -11 -27 -21 -42 -50 -73 -62 -159 -58 -408 4 -214 13 -331 27 -358 42 -79
178 -119 287 -83 39 12 90 16 231 16 109 0 179 -4 175 -9 -3 -5 -1 -13 5 -16
6 -4 9 -32 5 -73 -2 -37 -7 -98 -10 -137 -2 -38 -7 -104 -10 -145 -3 -41 -8
-104 -10 -140 -5 -84 -15 -223 -20 -280 -2 -25 -7 -88 -11 -140 -4 -52 -8
-108 -9 -125 -1 -16 -6 -77 -10 -135 -4 -58 -11 -110 -16 -117 -7 -7 -6 -14 1
-18 6 -3 7 -12 3 -18 -4 -7 -6 -22 -4 -34 1 -13 -2 -23 -8 -23 -6 0 -11 -8
-12 -17 0 -10 -3 -13 -5 -7 -8 18 -56 4 -105 -31 -44 -31 -68 -38 -169 -50
-93 -10 -205 -39 -214 -54 -17 -26 98 -58 274 -77 436 -45 1231 -29 1435 30 6
2 24 6 40 11 36 9 57 24 49 36 -9 16 -115 43 -209 53 -16 2 -59 7 -95 12 -36
4 -69 7 -75 5 -5 -1 -7 0 -3 4 9 10 -17 35 -35 35 -8 0 -20 7 -27 15 -6 8 -17
13 -23 12 -8 -1 -12 13 -11 38 2 52 14 221 18 260 2 17 7 71 11 120 3 50 8
106 10 125 2 19 6 80 10 135 4 55 8 116 10 135 2 19 6 80 9 135 4 55 9 125 11
155 3 30 7 109 10 174 3 66 9 122 14 125 5 3 9 85 9 181 0 96 1 182 1 191 1
12 15 18 49 23 26 3 49 6 52 6 3 0 31 8 63 19 170 59 193 113 126 295 -16 44
-27 86 -25 93 5 13 -11 57 -98 263 -68 161 -76 175 -119 196 -26 14 -61 17
-183 17 l-152 0 2 50 c1 49 2 51 50 76 100 54 173 155 198 274 9 41 17 57 29
57 57 0 99 149 60 214 -17 29 -16 78 2 77 21 -2 25 0 31 15 4 9 0 24 -8 33
-10 12 -15 57 -18 176 -5 183 -16 215 -95 285 -92 80 -314 166 -398 153z m504
-2035 c8 -23 6 -27 -25 -42 -19 -9 -37 -16 -39 -16 -3 0 -5 46 -5 102 l0 103
30 -61 c16 -33 34 -72 39 -86z m-394 -1178 c-7 -593 -20 -924 -36 -948 -10
-16 -10 -16 -5 0 5 16 -9 18 -162 20 l-167 3 4 40 c1 22 6 45 9 50 11 17 11
35 0 29 -6 -4 -8 -2 -4 4 3 5 9 43 12 83 3 41 7 76 9 79 2 3 6 41 10 85 4 44
9 82 10 85 2 3 6 35 10 70 3 36 8 76 10 90 2 14 7 43 9 65 14 112 17 133 22
170 9 64 12 87 19 145 4 30 9 62 10 70 2 8 8 58 15 110 6 52 13 104 15 115 2
11 4 22 4 25 1 3 48 5 106 5 l105 0 -5 -395z"/>
<path d="M2545 1225 c-5 -2 -22 -6 -37 -9 l-27 -6 2 -373 2 -372 24 -34 c28
-39 75 -61 131 -61 22 0 40 1 40 3 0 1 3 25 6 53 6 52 6 52 -25 59 -17 4 -35
14 -40 24 -5 9 -9 170 -9 358 0 188 -3 347 -7 352 -6 10 -38 13 -60 6z"/>
<path d="M4155 1223 c-11 -2 -30 -6 -42 -9 l-23 -4 0 -411 0 -410 22 -8 c25
-9 89 -4 101 8 5 5 9 58 9 120 0 61 4 111 8 111 13 0 138 -139 172 -191 17
-27 39 -49 50 -50 10 -1 34 -1 53 -1 59 0 65 1 65 18 0 29 -103 167 -191 256
l-46 47 84 88 c120 126 140 152 122 164 -8 5 -40 9 -71 9 -46 0 -60 -4 -71
-20 -16 -23 -134 -148 -160 -168 -15 -12 -16 5 -15 211 1 123 -2 229 -6 236
-7 11 -24 12 -61 4z"/>
<path d="M1410 1149 c-105 -29 -202 -116 -240 -217 -27 -69 -37 -207 -21 -280
26 -121 89 -206 187 -253 56 -26 78 -31 152 -32 88 -2 173 6 227 21 l30 8 0
185 0 184 -54 3 c-30 2 -59 -2 -65 -8 -6 -6 -11 -60 -11 -137 l0 -127 -32 -7
c-85 -17 -191 9 -235 58 -36 40 -61 116 -64 195 -5 128 36 221 119 269 35 20
54 24 117 23 41 -1 95 -9 120 -18 25 -9 49 -18 55 -19 5 -1 20 20 33 46 28 58
23 68 -51 92 -59 20 -213 28 -267 14z"/>
<path d="M2050 973 c-14 -2 -49 -8 -78 -14 l-52 -11 6 -46 c3 -26 9 -51 14
-55 4 -5 31 -4 59 1 84 15 142 7 169 -23 12 -14 22 -31 23 -38 0 -7 2 -21 3
-33 2 -19 -1 -20 -35 -14 -123 23 -264 -38 -288 -124 -14 -52 -4 -126 24 -168
30 -45 67 -66 137 -76 51 -7 210 0 266 13 l28 6 -2 212 c-1 226 -8 263 -56
314 -36 39 -140 65 -218 56z m145 -408 c1 -33 -1 -66 -3 -72 -5 -16 -106 -17
-150 -2 -57 20 -62 101 -8 128 11 5 52 9 91 8 l70 -2 0 -60z"/>
<path d="M2993 969 c-55 -10 -95 -32 -139 -75 -58 -59 -78 -114 -78 -224 -1
-85 2 -101 27 -152 51 -103 130 -151 249 -152 103 0 187 55 236 153 24 49 27
67 27 151 -1 104 -17 156 -69 217 -53 63 -162 98 -253 82z m124 -135 c40 -25
66 -91 66 -166 -1 -114 -53 -183 -138 -183 -84 0 -136 67 -137 177 -1 65 24
141 53 164 41 32 113 36 156 8z"/>
<path d="M3525 958 c-27 -5 -54 -13 -60 -18 -12 -10 -15 -537 -3 -555 4 -6 30
-8 65 -5 l58 5 1 220 c1 121 2 226 3 233 2 19 135 16 166 -4 37 -24 43 -59 45
-255 0 -101 4 -187 8 -191 4 -4 26 -9 50 -11 74 -7 74 -9 70 228 -3 197 -4
213 -26 255 -28 51 -41 64 -100 91 -34 16 -60 20 -135 18 -50 -1 -114 -6 -142
-11z"/>
<path d="M4668 938 c-2 -13 -3 -103 -2 -200 2 -131 6 -189 18 -225 33 -99 109
-145 235 -145 81 0 199 18 216 32 14 12 13 536 -1 550 -6 6 -35 10 -65 8 l-54
-3 -3 -232 -2 -233 -23 -1 c-65 -4 -122 2 -142 15 -38 25 -47 76 -50 260 -1
94 -3 177 -4 184 -1 8 -20 12 -60 12 -53 0 -59 -2 -63 -22z"/>
</g>
</svg>
